<svg xmlns="http://www.w3.org/2000/svg" width="1050" height="620" viewBox="0 0 1050 620">
  <rect width="1050" height="620" fill="#ffffff"/>
  <text x="70" y="38" font-family="Arial, Helvetica, sans-serif" font-size="22" font-weight="700" fill="#1F4E5F">Historical sales and EBIT margin</text>
  <text x="70" y="60" font-family="Arial, Helvetica, sans-serif" font-size="12" fill="#6B7280">Bars show revenue; line shows segment EBIT margin.</text>
  <line x1="115" y1="465" x2="895" y2="465" stroke="#20252B"/>
  <line x1="115" y1="105" x2="115" y2="465" stroke="#20252B"/>
  <rect x="143.0" y="219.4" width="60" height="245.6" fill="#2A9D8F"/>
  <text x="173.0" y="489" text-anchor="middle" font-family="Arial" font-size="11">2020</text>
  <text x="173.0" y="211.4" text-anchor="middle" font-family="Arial" font-size="10" fill="#20252B">20.5</text>
  <rect x="273.0" y="179.5" width="60" height="285.5" fill="#2A9D8F"/>
  <text x="303.0" y="489" text-anchor="middle" font-family="Arial" font-size="11">2021</text>
  <text x="303.0" y="171.5" text-anchor="middle" font-family="Arial" font-size="10" fill="#20252B">23.8</text>
  <rect x="403.0" y="121.9" width="60" height="343.1" fill="#2A9D8F"/>
  <text x="433.0" y="489" text-anchor="middle" font-family="Arial" font-size="11">2022</text>
  <text x="433.0" y="113.9" text-anchor="middle" font-family="Arial" font-size="10" fill="#20252B">28.6</text>
  <rect x="533.0" y="124.9" width="60" height="340.1" fill="#2A9D8F"/>
  <text x="563.0" y="489" text-anchor="middle" font-family="Arial" font-size="11">2023</text>
  <text x="563.0" y="116.9" text-anchor="middle" font-family="Arial" font-size="10" fill="#20252B">28.3</text>
  <rect x="663.0" y="138.7" width="60" height="326.3" fill="#2A9D8F"/>
  <text x="693.0" y="489" text-anchor="middle" font-family="Arial" font-size="11">2024</text>
  <text x="693.0" y="130.7" text-anchor="middle" font-family="Arial" font-size="10" fill="#20252B">27.2</text>
  <rect x="793.0" y="153.1" width="60" height="311.9" fill="#2A9D8F"/>
  <text x="823.0" y="489" text-anchor="middle" font-family="Arial" font-size="11">2025</text>
  <text x="823.0" y="145.1" text-anchor="middle" font-family="Arial" font-size="10" fill="#20252B">26.0</text>
  <line x1="173.0" y1="393.0" x2="303.0" y2="195.0" stroke="#D1495B" stroke-width="3"/>
  <line x1="303.0" y1="195.0" x2="433.0" y2="231.0" stroke="#D1495B" stroke-width="3"/>
  <line x1="433.0" y1="231.0" x2="563.0" y2="189.0" stroke="#D1495B" stroke-width="3"/>
  <line x1="563.0" y1="189.0" x2="693.0" y2="201.0" stroke="#D1495B" stroke-width="3"/>
  <line x1="693.0" y1="201.0" x2="823.0" y2="315.0" stroke="#D1495B" stroke-width="3"/>
  <circle cx="173.0" cy="393.0" r="5" fill="#D1495B"/>
  <text x="181.0" y="385.0" font-family="Arial" font-size="10" fill="#D1495B">9.2%</text>
  <circle cx="303.0" cy="195.0" r="5" fill="#D1495B"/>
  <text x="311.0" y="187.0" font-family="Arial" font-size="10" fill="#D1495B">12.5%</text>
  <circle cx="433.0" cy="231.0" r="5" fill="#D1495B"/>
  <text x="441.0" y="223.0" font-family="Arial" font-size="10" fill="#D1495B">11.9%</text>
  <circle cx="563.0" cy="189.0" r="5" fill="#D1495B"/>
  <text x="571.0" y="181.0" font-family="Arial" font-size="10" fill="#D1495B">12.6%</text>
  <circle cx="693.0" cy="201.0" r="5" fill="#D1495B"/>
  <text x="701.0" y="193.0" font-family="Arial" font-size="10" fill="#D1495B">12.4%</text>
  <circle cx="823.0" cy="315.0" r="5" fill="#D1495B"/>
  <text x="831.0" y="307.0" font-family="Arial" font-size="10" fill="#D1495B">10.5%</text>
  <text x="115" y="510" font-family="Arial" font-size="13" fill="#20252B">Readout: 2025 sales are below the 2022 peak, but margins remain structurally above 2020; the issue is volume/absorption, not a collapse in pricing.</text>
  <text x="70" y="590" font-family="Arial, Helvetica, sans-serif" font-size="10" fill="#6B7280">Source: Michelin key figures 2020-2025.</text>
</svg>
