<svg xmlns="http://www.w3.org/2000/svg" width="1150" height="620" viewBox="0 0 1150 620">
  <defs>
    <pattern id="forecastHatch" patternUnits="userSpaceOnUse" width="8" height="8" patternTransform="rotate(45)">
      <line x1="0" y1="0" x2="0" y2="8" stroke="#6B7280" stroke-width="2"/>
    </pattern>
  </defs>
  <rect width="1150" height="620" fill="#ffffff"/>
  <text x="60" y="38" font-family="Arial, Helvetica, sans-serif" font-size="22" font-weight="700" fill="#1F4E5F">Croissance des volumes de marche par canal</text>
  <text x="60" y="60" font-family="Arial, Helvetica, sans-serif" font-size="12" fill="#6B7280">Le total PLT + Truck est calcule a partir des volumes de marche Michelin et pondere par la taille de chaque canal.</text>
  <line x1="80" y1="445" x2="1010" y2="445" stroke="#20252B" stroke-width="1.2"/>
  <line x1="80" y1="95" x2="80" y2="445" stroke="#20252B" stroke-width="1.2"/>
  <line x1="80" y1="445.0" x2="1010" y2="445.0" stroke="#D9DEE3" stroke-width="1" stroke-dasharray="4 4"/>
  <text x="70" y="449.0" text-anchor="end" font-family="Arial" font-size="11" fill="#6B7280">-20%</text>
  <line x1="80" y1="345.0" x2="1010" y2="345.0" stroke="#D9DEE3" stroke-width="1" stroke-dasharray="4 4"/>
  <text x="70" y="349.0" text-anchor="end" font-family="Arial" font-size="11" fill="#6B7280">-10%</text>
  <line x1="80" y1="245.0" x2="1010" y2="245.0" stroke="#20252B" stroke-width="1"/>
  <text x="70" y="249.0" text-anchor="end" font-family="Arial" font-size="11" fill="#6B7280">0%</text>
  <line x1="80" y1="145.0" x2="1010" y2="145.0" stroke="#D9DEE3" stroke-width="1" stroke-dasharray="4 4"/>
  <text x="70" y="149.0" text-anchor="end" font-family="Arial" font-size="11" fill="#6B7280">10%</text>
  <text x="46" y="86" text-anchor="middle" font-family="Arial" font-size="11" fill="#6B7280" transform="rotate(-90 46 86)">Croissance YoY</text>
  <rect x="74" y="88" width="152" height="365" fill="none" stroke="#EEF1F4" stroke-width="1"/>
  <text x="150" y="480" text-anchor="middle" font-family="Arial" font-size="12" font-weight="700" fill="#20252B">2021A</text>
  <rect x="88.0" y="219.5" width="16" height="25.5" fill="#1F4E5F"/>
  <rect x="112.0" y="122.8" width="16" height="122.2" fill="#2A9D8F"/>
  <rect x="136.0" y="243.1" width="16" height="1.9" fill="#D1495B"/>
  <rect x="160.0" y="168.6" width="16" height="76.4" fill="#F4A261"/>
  <rect x="187.0" y="152.5" width="34" height="92.5" fill="#20252B" stroke="#FFFFFF" stroke-width="1.2"/>
  <text x="204.0" y="144.5" text-anchor="middle" font-family="Arial" font-size="11" font-weight="700" fill="#20252B">9.3%</text>
  <rect x="244" y="88" width="152" height="365" fill="none" stroke="#EEF1F4" stroke-width="1"/>
  <text x="320" y="480" text-anchor="middle" font-family="Arial" font-size="12" font-weight="700" fill="#20252B">2022A</text>
  <rect x="258.0" y="181.5" width="16" height="63.5" fill="#1F4E5F"/>
  <rect x="282.0" y="245.0" width="16" height="12.9" fill="#2A9D8F"/>
  <rect x="306.0" y="245.0" width="16" height="185.3" fill="#D1495B"/>
  <rect x="330.0" y="241.4" width="16" height="3.6" fill="#F4A261"/>
  <rect x="357.0" y="245.0" width="34" height="0.6" fill="#20252B" stroke="#FFFFFF" stroke-width="1.2"/>
  <text x="374.0" y="261.6" text-anchor="middle" font-family="Arial" font-size="11" font-weight="700" fill="#20252B">-0.1%</text>
  <rect x="414" y="88" width="152" height="365" fill="none" stroke="#EEF1F4" stroke-width="1"/>
  <text x="490" y="480" text-anchor="middle" font-family="Arial" font-size="12" font-weight="700" fill="#20252B">2023A</text>
  <rect x="428.0" y="156.7" width="16" height="88.3" fill="#1F4E5F"/>
  <rect x="452.0" y="208.5" width="16" height="36.5" fill="#2A9D8F"/>
  <rect x="476.0" y="136.0" width="16" height="109.0" fill="#D1495B"/>
  <rect x="500.0" y="245.0" width="16" height="18.4" fill="#F4A261"/>
  <rect x="527.0" y="200.6" width="34" height="44.4" fill="#20252B" stroke="#FFFFFF" stroke-width="1.2"/>
  <text x="544.0" y="192.6" text-anchor="middle" font-family="Arial" font-size="11" font-weight="700" fill="#20252B">4.4%</text>
  <rect x="584" y="88" width="152" height="365" fill="none" stroke="#EEF1F4" stroke-width="1"/>
  <text x="660" y="480" text-anchor="middle" font-family="Arial" font-size="12" font-weight="700" fill="#20252B">2024A</text>
  <rect x="598.0" y="245.0" width="16" height="24.4" fill="#1F4E5F"/>
  <rect x="622.0" y="199.7" width="16" height="45.3" fill="#2A9D8F"/>
  <rect x="646.0" y="245.0" width="16" height="44.5" fill="#D1495B"/>
  <rect x="670.0" y="231.4" width="16" height="13.6" fill="#F4A261"/>
  <rect x="697.0" y="220.9" width="34" height="24.1" fill="#20252B" stroke="#FFFFFF" stroke-width="1.2"/>
  <text x="714.0" y="212.9" text-anchor="middle" font-family="Arial" font-size="11" font-weight="700" fill="#20252B">2.4%</text>
  <rect x="754" y="88" width="152" height="365" fill="none" stroke="#EEF1F4" stroke-width="1"/>
  <text x="830" y="480" text-anchor="middle" font-family="Arial" font-size="12" font-weight="700" fill="#20252B">2025A</text>
  <rect x="768.0" y="220.7" width="16" height="24.3" fill="#1F4E5F"/>
  <rect x="792.0" y="238.1" width="16" height="6.9" fill="#2A9D8F"/>
  <rect x="816.0" y="188.9" width="16" height="56.1" fill="#D1495B"/>
  <rect x="840.0" y="219.3" width="16" height="25.7" fill="#F4A261"/>
  <rect x="867.0" y="231.4" width="34" height="13.6" fill="#20252B" stroke="#FFFFFF" stroke-width="1.2"/>
  <text x="884.0" y="223.4" text-anchor="middle" font-family="Arial" font-size="11" font-weight="700" fill="#20252B">1.4%</text>
  <rect x="985" y="85" width="130" height="400" fill="#F6F8FA" stroke="#D9DEE3"/>
  <rect x="1012" y="225.0" width="88" height="40.0" fill="url(#forecastHatch)" opacity="0.65" stroke="#6B7280"/>
  <line x1="1012" y1="245.0" x2="1100" y2="245.0" stroke="#20252B" stroke-width="1"/>
  <text x="1056" y="480" text-anchor="middle" font-family="Arial" font-size="12" font-weight="700" fill="#20252B">2026E</text>
  <text x="1056" y="216.0" text-anchor="middle" font-family="Arial" font-size="11" font-weight="700" fill="#6B7280">-2% a +2%</text>
  <text x="1056" y="516" text-anchor="middle" font-family="Arial" font-size="10" fill="#6B7280">Guidance globale</text>
  <text x="1056" y="531" text-anchor="middle" font-family="Arial" font-size="10" fill="#6B7280">PLT/TBR</text>
  <rect x="80" y="515" width="15" height="14" fill="#1F4E5F"/>
  <text x="102" y="526" font-family="Arial" font-size="12" fill="#20252B">PLT OE</text>
  <rect x="230" y="515" width="15" height="14" fill="#2A9D8F"/>
  <text x="252" y="526" font-family="Arial" font-size="12" fill="#20252B">PLT rempl.</text>
  <rect x="405" y="515" width="15" height="14" fill="#D1495B"/>
  <text x="427" y="526" font-family="Arial" font-size="12" fill="#20252B">Truck OE</text>
  <rect x="555" y="515" width="15" height="14" fill="#F4A261"/>
  <text x="577" y="526" font-family="Arial" font-size="12" fill="#20252B">Truck rempl.</text>
  <rect x="735" y="515" width="22" height="14" fill="#20252B"/>
  <text x="764" y="526" font-family="Arial" font-size="12" fill="#20252B">Total PLT+Truck</text>
  <text x="80" y="555" font-family="Arial" font-size="13" fill="#20252B">Lecture: le total PLT + Truck amortit la volatilite des canaux; le remplacement pese lourd et stabilise la croissance globale.</text>
  <text x="60" y="590" font-family="Arial, Helvetica, sans-serif" font-size="10" fill="#6B7280">Source: Michelin key figures 2020-2025, onglet Markets; guidance 2026 Michelin / European Rubber Journal. Volumes de marche, hors specialites.</text>
</svg>
