<svg xmlns="http://www.w3.org/2000/svg" width="1000" height="560" viewBox="0 0 1000 560">
  <rect width="1000" height="560" fill="#ffffff"/>
  <text x="70" y="38" font-family="Arial, Helvetica, sans-serif" font-size="22" font-weight="700" fill="#1F4E5F">Scenario DCF - value per share</text>
  <text x="70" y="60" font-family="Arial, Helvetica, sans-serif" font-size="12" fill="#6B7280">Growth stays fixed at Forecast. Bear / Base / Bull vary terminal margin, Capex/CA, WACC and terminal growth.</text>

  <line x1="120" y1="430" x2="900" y2="430" stroke="#20252B" stroke-width="1.2"/>
  <line x1="120" y1="90" x2="120" y2="430" stroke="#20252B" stroke-width="1.2"/>
  <g font-family="Arial, Helvetica, sans-serif" font-size="11" fill="#6B7280">
    <line x1="120" y1="430.0" x2="900" y2="430.0" stroke="#E6EBEF" stroke-width="1"/>
    <text x="82" y="434.0">0</text>
    <line x1="120" y1="377.7" x2="900" y2="377.7" stroke="#E6EBEF" stroke-width="1"/>
    <text x="76" y="381.7">10</text>
    <line x1="120" y1="325.4" x2="900" y2="325.4" stroke="#E6EBEF" stroke-width="1"/>
    <text x="76" y="329.4">20</text>
    <line x1="120" y1="273.1" x2="900" y2="273.1" stroke="#E6EBEF" stroke-width="1"/>
    <text x="76" y="277.1">30</text>
    <line x1="120" y1="220.8" x2="900" y2="220.8" stroke="#E6EBEF" stroke-width="1"/>
    <text x="76" y="224.8">40</text>
    <line x1="120" y1="168.5" x2="900" y2="168.5" stroke="#E6EBEF" stroke-width="1"/>
    <text x="76" y="172.5">50</text>
    <line x1="120" y1="116.2" x2="900" y2="116.2" stroke="#E6EBEF" stroke-width="1"/>
    <text x="76" y="120.2">60</text>
    <text x="63" y="95">EUR/share</text>
  </g>
  <line x1="120" y1="261.4" x2="900" y2="261.4" stroke="#D1495B" stroke-width="2" stroke-dasharray="6 4"/>
  <text x="905" y="264.4" font-family="Arial, Helvetica, sans-serif" font-size="12" fill="#D1495B">Current price EUR 32.2</text>
  <rect x="235" y="259.8" width="120" height="170.2" fill="#D1495B"/>
  <text x="295" y="247.8" text-anchor="middle" font-family="Arial, Helvetica, sans-serif" font-size="18" font-weight="700" fill="#20252B">EUR 32.5</text>
  <text x="295" y="462" text-anchor="middle" font-family="Arial, Helvetica, sans-serif" font-size="14" font-weight="700" fill="#20252B">Bear</text>
  <text x="295" y="483" text-anchor="middle" font-family="Arial, Helvetica, sans-serif" font-size="11" fill="#6B7280">+0.9% upside</text>
  <rect x="440" y="198.3" width="120" height="231.7" fill="#2A9D8F"/>
  <text x="500" y="186.3" text-anchor="middle" font-family="Arial, Helvetica, sans-serif" font-size="18" font-weight="700" fill="#20252B">EUR 44.3</text>
  <text x="500" y="462" text-anchor="middle" font-family="Arial, Helvetica, sans-serif" font-size="14" font-weight="700" fill="#20252B">Base</text>
  <text x="500" y="483" text-anchor="middle" font-family="Arial, Helvetica, sans-serif" font-size="11" fill="#6B7280">+37.4% upside</text>
  <rect x="645" y="127.5" width="120" height="302.5" fill="#1F4E5F"/>
  <text x="705" y="115.5" text-anchor="middle" font-family="Arial, Helvetica, sans-serif" font-size="18" font-weight="700" fill="#20252B">EUR 57.8</text>
  <text x="705" y="462" text-anchor="middle" font-family="Arial, Helvetica, sans-serif" font-size="14" font-weight="700" fill="#20252B">Bull</text>
  <text x="705" y="483" text-anchor="middle" font-family="Arial, Helvetica, sans-serif" font-size="11" fill="#6B7280">+79.4% upside</text>
  <text x="70" y="535" font-family="Arial, Helvetica, sans-serif" font-size="10" fill="#6B7280">Source: Michelin valuation model workbook, Sensitivity sheet.</text>
</svg>
