<svg xmlns="http://www.w3.org/2000/svg" width="1050" height="560" viewBox="0 0 1050 560">
  <rect width="1050" height="560" fill="#ffffff"/>
  <text x="70" y="38" font-family="Arial, Helvetica, sans-serif" font-size="22" font-weight="700" fill="#1F4E5F">Tornado sensitivity - DCF value per share</text>
  <text x="70" y="60" font-family="Arial, Helvetica, sans-serif" font-size="12" fill="#6B7280">One variable changes at a time; revenue growth stays fixed at Forecast.</text>
  <line x1="309.6" y1="95" x2="309.6" y2="430" stroke="#E6EBEF"/>
  <text x="301.6" y="455" font-family="Arial" font-size="11" fill="#6B7280">38</text>
  <line x1="415.1" y1="95" x2="415.1" y2="430" stroke="#E6EBEF"/>
  <text x="407.1" y="455" font-family="Arial" font-size="11" fill="#6B7280">40</text>
  <line x1="520.6" y1="95" x2="520.6" y2="430" stroke="#E6EBEF"/>
  <text x="512.6" y="455" font-family="Arial" font-size="11" fill="#6B7280">42</text>
  <line x1="626.1" y1="95" x2="626.1" y2="430" stroke="#E6EBEF"/>
  <text x="618.1" y="455" font-family="Arial" font-size="11" fill="#6B7280">44</text>
  <line x1="731.6" y1="95" x2="731.6" y2="430" stroke="#E6EBEF"/>
  <text x="723.6" y="455" font-family="Arial" font-size="11" fill="#6B7280">46</text>
  <line x1="837.2" y1="95" x2="837.2" y2="430" stroke="#E6EBEF"/>
  <text x="829.2" y="455" font-family="Arial" font-size="11" fill="#6B7280">48</text>
  <line x1="641.5" y1="95" x2="641.5" y2="430" stroke="#20252B" stroke-width="2" stroke-dasharray="6 4"/>
  <text x="649.5" y="108" font-family="Arial" font-size="12" fill="#20252B">Base: EUR 44.3</text>
  <text x="90" y="123" font-family="Arial" font-size="13" font-weight="700" fill="#20252B">Marge EBIT terminale 2030</text>
  <rect x="369.1" y="105" width="272.3" height="22" fill="#D1495B" opacity="0.85"/>
  <rect x="641.5" y="105" width="181.5" height="22" fill="#2A9D8F" opacity="0.90"/>
  <text x="363.1" y="99" text-anchor="end" font-family="Arial" font-size="11" fill="#6B7280">10.5%</text>
  <text x="829.0" y="99" font-family="Arial" font-size="11" fill="#6B7280">13.0%</text>
  <text x="363.1" y="122" text-anchor="end" font-family="Arial" font-size="11" fill="#20252B">39.1</text>
  <text x="829.0" y="122" font-family="Arial" font-size="11" fill="#20252B">47.7</text>
  <text x="90" y="201" font-family="Arial" font-size="13" font-weight="700" fill="#20252B">WACC</text>
  <rect x="476.4" y="183" width="165.0" height="22" fill="#D1495B" opacity="0.85"/>
  <rect x="641.5" y="183" width="189.4" height="22" fill="#2A9D8F" opacity="0.90"/>
  <text x="470.4" y="177" text-anchor="end" font-family="Arial" font-size="11" fill="#6B7280">9.3%</text>
  <text x="836.9" y="177" font-family="Arial" font-size="11" fill="#6B7280">8.3%</text>
  <text x="470.4" y="200" text-anchor="end" font-family="Arial" font-size="11" fill="#20252B">41.2</text>
  <text x="836.9" y="200" font-family="Arial" font-size="11" fill="#20252B">47.9</text>
  <text x="90" y="279" font-family="Arial" font-size="13" font-weight="700" fill="#20252B">Croissance terminale</text>
  <rect x="516.0" y="261" width="125.5" height="22" fill="#D1495B" opacity="0.85"/>
  <rect x="641.5" y="261" width="144.0" height="22" fill="#2A9D8F" opacity="0.90"/>
  <text x="510.0" y="255" text-anchor="end" font-family="Arial" font-size="11" fill="#6B7280">1.0%</text>
  <text x="791.4" y="255" font-family="Arial" font-size="11" fill="#6B7280">2.0%</text>
  <text x="510.0" y="278" text-anchor="end" font-family="Arial" font-size="11" fill="#20252B">41.9</text>
  <text x="791.4" y="278" font-family="Arial" font-size="11" fill="#20252B">47.0</text>
  <text x="90" y="357" font-family="Arial" font-size="13" font-weight="700" fill="#20252B">Capex / CA terminal 2030</text>
  <rect x="518.3" y="339" width="123.2" height="22" fill="#D1495B" opacity="0.85"/>
  <rect x="641.5" y="339" width="123.2" height="22" fill="#2A9D8F" opacity="0.90"/>
  <text x="512.3" y="333" text-anchor="end" font-family="Arial" font-size="11" fill="#6B7280">7.5%</text>
  <text x="770.6" y="333" font-family="Arial" font-size="11" fill="#6B7280">6.5%</text>
  <text x="512.3" y="356" text-anchor="end" font-family="Arial" font-size="11" fill="#20252B">42.0</text>
  <text x="770.6" y="356" font-family="Arial" font-size="11" fill="#20252B">46.6</text>
  <text x="90" y="515" font-family="Arial" font-size="13" fill="#20252B">Readout: margin is the biggest driver; WACC is second. Capex and terminal growth matter, but less than operating margin restoration.</text>
  <text x="70" y="535" font-family="Arial, Helvetica, sans-serif" font-size="10" fill="#6B7280">Source: Michelin valuation model workbook, Tornado logic from Base vs one-variable changes.</text>
</svg>
